<?xml version="1.0" encoding="UTF-8" standalone="no"?>
<!DOCTYPE svg PUBLIC "-//W3C//DTD SVG 1.1//EN"
 "http://www.w3.org/Graphics/SVG/1.1/DTD/svg11.dtd">
<!-- Generated by graphviz version 5.0.1 (20220820.1526)
 -->
<!-- Title: dependency&#45;cruiser output Pages: 1 -->
<svg width="528pt" height="304pt"
 viewBox="0.00 0.00 528.00 304.00" xmlns="http://www.w3.org/2000/svg" xmlns:xlink="http://www.w3.org/1999/xlink">
<g id="graph0" class="graph" transform="scale(1 1) rotate(0) translate(4 300)">
<title>dependency&#45;cruiser output</title>
<polygon fill="white" stroke="none" points="-4,4 -4,-300 524,-300 524,4 -4,4"/>
<g id="clust1" class="cluster">
<title>cluster_src</title>
<path fill="#ffffff" stroke="black" stroke-width="2" d="M20,-8C20,-8 500,-8 500,-8 506,-8 512,-14 512,-20 512,-20 512,-276 512,-276 512,-282 506,-288 500,-288 500,-288 20,-288 20,-288 14,-288 8,-282 8,-276 8,-276 8,-20 8,-20 8,-14 14,-8 20,-8"/>
<text text-anchor="middle" x="260" y="-276.8" font-family="Helvetica,sans-Serif" font-weight="bold" font-size="9.00">src</text>
</g>
<g id="clust2" class="cluster">
<title>cluster_src/auth</title>
<path fill="#ffffff" stroke="black" stroke-width="2" d="M28,-42C28,-42 492,-42 492,-42 498,-42 504,-48 504,-54 504,-54 504,-224 504,-224 504,-230 498,-236 492,-236 492,-236 28,-236 28,-236 22,-236 16,-230 16,-224 16,-224 16,-54 16,-54 16,-48 22,-42 28,-42"/>
<text text-anchor="start" x="250.5" y="-224.8" font-family="Helvetica,sans-Serif" font-weight="bold" font-size="9.00">auth</text>
</g>
<g id="clust3" class="cluster">
<title>cluster_src/auth/domain</title>
<path fill="#ffffff" stroke="black" stroke-width="2" d="M360,-108C360,-108 484,-108 484,-108 490,-108 496,-114 496,-120 496,-120 496,-198 496,-198 496,-204 490,-210 484,-210 484,-210 360,-210 360,-210 354,-210 348,-204 348,-198 348,-198 348,-120 348,-120 348,-114 354,-108 360,-108"/>
<text text-anchor="middle" x="422" y="-198.8" font-family="Helvetica,sans-Serif" font-weight="bold" font-size="9.00">domain</text>
</g>
<g id="clust4" class="cluster">
<title>cluster_src/auth/domain/model</title>
<path fill="#ffffff" stroke="black" stroke-width="2" d="M430,-116C430,-116 476,-116 476,-116 482,-116 488,-122 488,-128 488,-128 488,-172 488,-172 488,-178 482,-184 476,-184 476,-184 430,-184 430,-184 424,-184 418,-178 418,-172 418,-172 418,-128 418,-128 418,-122 424,-116 430,-116"/>
<text text-anchor="start" x="439.5" y="-172.8" font-family="Helvetica,sans-Serif" font-weight="bold" font-size="9.00">model</text>
</g>
<g id="clust5" class="cluster">
<title>cluster_src/auth/infrastructure</title>
<path fill="#ffffff" stroke="black" stroke-width="2" d="M260,-60C260,-60 312,-60 312,-60 318,-60 324,-66 324,-72 324,-72 324,-146 324,-146 324,-152 318,-158 312,-158 312,-158 260,-158 260,-158 254,-158 248,-152 248,-146 248,-146 248,-72 248,-72 248,-66 254,-60 260,-60"/>
<text text-anchor="middle" x="286" y="-146.8" font-family="Helvetica,sans-Serif" font-weight="bold" font-size="9.00">infrastructure</text>
</g>
<!-- src -->
<!-- src/auth -->
<!-- src&#45;&gt;src/auth -->
<g id="edge1" class="edge">
<title>src&#45;&gt;src/auth</title>
<path fill="none" stroke="#000000" stroke-width="2" stroke-opacity="0.200000" d="M121,-29.86C121,-58.28 121,-86.7 121,-115.12"/>
<polygon fill="#000000" fill-opacity="0.200000" stroke="#000000" stroke-width="2" stroke-opacity="0.200000" points="118.9,-115.18 121,-121.18 123.1,-115.18 118.9,-115.18"/>
</g>
<!-- src/config -->
<g id="node3" class="node">
<title>src/config</title>
<g id="a_node3"><a xlink:href="src/config" xlink:title="config">
<polygon fill="#ffffcc" stroke="black" points="220,-34 168,-34 166,-32 166,-16 218,-16 220,-18 220,-34"/>
<polyline fill="none" stroke="black" points="218,-32 166,-32"/>
<polyline fill="none" stroke="black" points="218,-32 218,-16"/>
<polyline fill="none" stroke="black" points="218,-32 220,-34"/>
<text text-anchor="start" x="180.5" y="-22.8" font-family="Helvetica,sans-Serif" font-size="9.00">config</text>
</a>
</g>
</g>
<!-- src&#45;&gt;src/config -->
<g id="edge2" class="edge">
<title>src&#45;&gt;src/config</title>
<path fill="none" stroke="#000000" stroke-width="2" stroke-opacity="0.200000" d="M122.99,-27.96C127.16,-27.78 143.79,-27.07 159.68,-26.39"/>
<polygon fill="#000000" fill-opacity="0.200000" stroke="#000000" stroke-width="2" stroke-opacity="0.200000" points="160.04,-28.47 165.94,-26.12 159.86,-24.28 160.04,-28.47"/>
</g>
<!-- src/auth/application -->
<g id="node5" class="node">
<title>src/auth/application</title>
<g id="a_node5"><a xlink:href="src/auth/application" xlink:title="application">
<polygon fill="#ffffcc" stroke="black" points="224,-165 164,-165 162,-163 162,-147 222,-147 224,-149 224,-165"/>
<polyline fill="none" stroke="black" points="222,-163 162,-163"/>
<polyline fill="none" stroke="black" points="222,-163 222,-147"/>
<polyline fill="none" stroke="black" points="222,-163 224,-165"/>
<text text-anchor="start" x="170" y="-153.8" font-family="Helvetica,sans-Serif" font-size="9.00">application</text>
</a>
</g>
</g>
<!-- src/auth&#45;&gt;src/auth/application -->
<g id="edge3" class="edge">
<title>src/auth&#45;&gt;src/auth/application</title>
<path fill="none" stroke="#000000" stroke-width="2" stroke-opacity="0.200000" d="M122.79,-123.37C127.2,-125.45 149.31,-135.88 167.37,-144.39"/>
<polygon fill="#000000" fill-opacity="0.200000" stroke="#000000" stroke-width="2" stroke-opacity="0.200000" points="166.5,-146.3 172.83,-146.96 168.29,-142.5 166.5,-146.3"/>
</g>
<!-- src/auth/domain/model -->
<!-- src/auth&#45;&gt;src/auth/domain/model -->
<g id="edge4" class="edge">
<title>src/auth&#45;&gt;src/auth/domain/model</title>
<path fill="none" stroke="#000000" stroke-width="2" stroke-opacity="0.200000" d="M123.13,-123.01C127.02,-122.98 140.18,-122.45 149,-117 156.79,-112.18 154.88,-106.77 162,-101 219.98,-54.05 251.39,-39.86 324,-57 376.06,-69.29 429.62,-108.5 446.54,-121.65"/>
<polygon fill="#000000" fill-opacity="0.200000" stroke="#000000" stroke-width="2" stroke-opacity="0.200000" points="445.25,-123.31 451.25,-125.39 447.86,-120.01 445.25,-123.31"/>
</g>
<!-- src/auth/domain/services -->
<g id="node7" class="node">
<title>src/auth/domain/services</title>
<g id="a_node7"><a xlink:href="src/auth/domain/services" xlink:title="services">
<polygon fill="#ffffcc" stroke="black" points="410,-184 358,-184 356,-182 356,-166 408,-166 410,-168 410,-184"/>
<polyline fill="none" stroke="black" points="408,-182 356,-182"/>
<polyline fill="none" stroke="black" points="408,-182 408,-166"/>
<polyline fill="none" stroke="black" points="408,-182 410,-184"/>
<text text-anchor="start" x="366" y="-172.8" font-family="Helvetica,sans-Serif" font-size="9.00">services</text>
</a>
</g>
</g>
<!-- src/auth&#45;&gt;src/auth/domain/services -->
<g id="edge5" class="edge">
<title>src/auth&#45;&gt;src/auth/domain/services</title>
<path fill="none" stroke="#000000" stroke-width="2" stroke-opacity="0.200000" d="M122.7,-124.54C125.97,-131.48 140.37,-159.93 162,-171 222.42,-201.91 304.92,-191.85 349.77,-182.79"/>
<polygon fill="#000000" fill-opacity="0.200000" stroke="#000000" stroke-width="2" stroke-opacity="0.200000" points="350.39,-184.81 355.84,-181.52 349.53,-180.69 350.39,-184.81"/>
</g>
<!-- src/auth/infrastructure/config -->
<g id="node8" class="node">
<title>src/auth/infrastructure/config</title>
<g id="a_node8"><a xlink:href="src/auth/infrastructure/config" xlink:title="config">
<polygon fill="#ffffcc" stroke="black" points="313,-132 261,-132 259,-130 259,-114 311,-114 313,-116 313,-132"/>
<polyline fill="none" stroke="black" points="311,-130 259,-130"/>
<polyline fill="none" stroke="black" points="311,-130 311,-114"/>
<polyline fill="none" stroke="black" points="311,-130 313,-132"/>
<text text-anchor="start" x="273.5" y="-120.8" font-family="Helvetica,sans-Serif" font-size="9.00">config</text>
</a>
</g>
</g>
<!-- src/auth&#45;&gt;src/auth/infrastructure/config -->
<g id="edge6" class="edge">
<title>src/auth&#45;&gt;src/auth/infrastructure/config</title>
<path fill="none" stroke="#000000" stroke-width="2" stroke-opacity="0.200000" d="M123.04,-123C132.78,-123 208.53,-123 252.9,-123"/>
<polygon fill="#000000" fill-opacity="0.200000" stroke="#000000" stroke-width="2" stroke-opacity="0.200000" points="252.95,-125.1 258.95,-123 252.95,-120.9 252.95,-125.1"/>
</g>
<!-- src/auth/infrastructure/data -->
<g id="node9" class="node">
<title>src/auth/infrastructure/data</title>
<g id="a_node9"><a xlink:href="src/auth/infrastructure/data" xlink:title="data">
<polygon fill="#ffffcc" stroke="black" points="313,-102 261,-102 259,-100 259,-84 311,-84 313,-86 313,-102"/>
<polyline fill="none" stroke="black" points="311,-100 259,-100"/>
<polyline fill="none" stroke="black" points="311,-100 311,-84"/>
<polyline fill="none" stroke="black" points="311,-100 313,-102"/>
<text text-anchor="start" x="276.5" y="-90.8" font-family="Helvetica,sans-Serif" font-size="9.00">data</text>
</a>
</g>
</g>
<!-- src/auth&#45;&gt;src/auth/infrastructure/data -->
<g id="edge7" class="edge">
<title>src/auth&#45;&gt;src/auth/infrastructure/data</title>
<path fill="none" stroke="#000000" stroke-width="2" stroke-opacity="0.200000" d="M123.04,-122.81C132.78,-121.02 208.53,-107.07 252.9,-98.91"/>
<polygon fill="#000000" fill-opacity="0.200000" stroke="#000000" stroke-width="2" stroke-opacity="0.200000" points="253.43,-100.95 258.95,-97.8 252.67,-96.82 253.43,-100.95"/>
</g>
<!-- src/__tests__ -->
<g id="node4" class="node">
<title>src/__tests__</title>
<g id="a_node4"><a xlink:href="src/__tests__" xlink:title="__tests__">
<polygon fill="#ffffcc" stroke="black" points="149,-262 95,-262 93,-260 93,-244 147,-244 149,-246 149,-262"/>
<polyline fill="none" stroke="black" points="147,-260 93,-260"/>
<polyline fill="none" stroke="black" points="147,-260 147,-244"/>
<polyline fill="none" stroke="black" points="147,-260 149,-262"/>
<text text-anchor="start" x="101" y="-250.8" font-family="Helvetica,sans-Serif" font-size="9.00">__tests__</text>
</a>
</g>
</g>
<!-- src/auth/application&#45;&gt;src/auth/domain/model -->
<g id="edge13" class="edge">
<title>src/auth/application&#45;&gt;src/auth/domain/model</title>
<path fill="none" stroke="#000000" stroke-width="2" stroke-opacity="0.200000" d="M224.24,-159.3C231.98,-160 240.29,-160.64 248,-161 281.74,-162.56 292.1,-172.1 324,-161 336.85,-156.53 335.53,-147.44 348,-142 381.96,-127.19 427.39,-125.8 444.8,-125.87"/>
<polygon fill="#000000" fill-opacity="0.200000" stroke="#000000" stroke-width="2" stroke-opacity="0.200000" points="444.89,-127.97 450.92,-125.96 444.95,-123.77 444.89,-127.97"/>
</g>
<!-- src/auth/application&#45;&gt;src/auth/domain/services -->
<g id="edge14" class="edge">
<title>src/auth/application&#45;&gt;src/auth/domain/services</title>
<path fill="none" stroke="#000000" stroke-width="2" stroke-opacity="0.200000" d="M221.47,-165.01C229.89,-167.39 239.25,-169.67 248,-171 282.41,-176.21 322.33,-176.7 349.59,-176.21"/>
<polygon fill="#000000" fill-opacity="0.200000" stroke="#000000" stroke-width="2" stroke-opacity="0.200000" points="349.94,-178.3 355.89,-176.07 349.85,-174.1 349.94,-178.3"/>
</g>
<!-- src/auth/application&#45;&gt;src/auth/infrastructure/config -->
<g id="edge12" class="edge">
<title>src/auth/application&#45;&gt;src/auth/infrastructure/config</title>
<path fill="none" stroke="#000000" stroke-width="2" stroke-opacity="0.200000" d="M218.16,-146.95C227.47,-143.49 238.22,-139.53 248,-136 249.68,-135.39 251.41,-134.77 253.15,-134.15"/>
<polygon fill="#000000" fill-opacity="0.200000" stroke="#000000" stroke-width="2" stroke-opacity="0.200000" points="254.15,-136.02 259.1,-132.04 252.75,-132.07 254.15,-136.02"/>
</g>
<!-- src/auth/domain/services&#45;&gt;src/auth/domain/model -->
<g id="edge16" class="edge">
<title>src/auth/domain/services&#45;&gt;src/auth/domain/model</title>
<path fill="none" stroke="#000000" stroke-width="2" stroke-opacity="0.200000" d="M403.74,-165.83C406.07,-164.14 408.25,-162.2 410,-160 417.54,-150.55 409.17,-142.26 418,-134 425.29,-127.19 437.25,-125.83 444.87,-125.72"/>
<polygon fill="#000000" fill-opacity="0.200000" stroke="#000000" stroke-width="2" stroke-opacity="0.200000" points="444.94,-127.83 451,-125.91 445.07,-123.63 444.94,-127.83"/>
</g>
<!-- src/auth/domain/model/errors -->
<g id="node12" class="node">
<title>src/auth/domain/model/errors</title>
<g id="a_node12"><a xlink:href="src/auth/domain/model/errors" xlink:title="errors">
<polygon fill="#ffffcc" stroke="black" points="480,-158 428,-158 426,-156 426,-140 478,-140 480,-142 480,-158"/>
<polyline fill="none" stroke="black" points="478,-156 426,-156"/>
<polyline fill="none" stroke="black" points="478,-156 478,-140"/>
<polyline fill="none" stroke="black" points="478,-156 480,-158"/>
<text text-anchor="start" x="440.5" y="-146.8" font-family="Helvetica,sans-Serif" font-size="9.00">errors</text>
</a>
</g>
</g>
<!-- src/auth/domain/services&#45;&gt;src/auth/domain/model/errors -->
<g id="edge15" class="edge">
<title>src/auth/domain/services&#45;&gt;src/auth/domain/model/errors</title>
<path fill="none" stroke="#000000" stroke-width="2" stroke-opacity="0.200000" d="M407.78,-165.91C412.52,-164.1 417.54,-162.17 422.44,-160.3"/>
<polygon fill="#000000" fill-opacity="0.200000" stroke="#000000" stroke-width="2" stroke-opacity="0.200000" points="423.26,-162.24 428.12,-158.13 421.76,-158.31 423.26,-162.24"/>
</g>
<!-- src/auth/infrastructure/config&#45;&gt;src/auth/domain/services -->
<g id="edge17" class="edge">
<title>src/auth/infrastructure/config&#45;&gt;src/auth/domain/services</title>
<path fill="none" stroke="#000000" stroke-width="2" stroke-opacity="0.200000" d="M313.16,-130.53C316.93,-132.08 320.66,-133.9 324,-136 336.77,-144.03 335.55,-151.48 348,-160 349.6,-161.09 351.29,-162.14 353.03,-163.13"/>
<polygon fill="#000000" fill-opacity="0.200000" stroke="#000000" stroke-width="2" stroke-opacity="0.200000" points="352.06,-164.99 358.34,-165.93 354.02,-161.28 352.06,-164.99"/>
</g>
<!-- src/auth/infrastructure/data&#45;&gt;src/auth/domain/model -->
<g id="edge18" class="edge">
<title>src/auth/infrastructure/data&#45;&gt;src/auth/domain/model</title>
<path fill="none" stroke="#000000" stroke-width="2" stroke-opacity="0.200000" d="M313.12,-97.3C323.92,-99.07 336.56,-101.14 348,-103 375.55,-107.48 382.82,-106.64 410,-113 422.49,-115.92 436.67,-120.61 444.95,-123.48"/>
<polygon fill="#000000" fill-opacity="0.200000" stroke="#000000" stroke-width="2" stroke-opacity="0.200000" points="444.62,-125.6 450.98,-125.62 446.02,-121.64 444.62,-125.6"/>
</g>
<!-- src/auth/__tests__ -->
<g id="node10" class="node">
<title>src/auth/__tests__</title>
<g id="a_node10"><a xlink:href="src/auth/__tests__" xlink:title="__tests__">
<polygon fill="#ffffcc" stroke="black" points="80,-171 26,-171 24,-169 24,-153 78,-153 80,-155 80,-171"/>
<polyline fill="none" stroke="black" points="78,-169 24,-169"/>
<polyline fill="none" stroke="black" points="78,-169 78,-153"/>
<polyline fill="none" stroke="black" points="78,-169 80,-171"/>
<text text-anchor="start" x="32" y="-159.8" font-family="Helvetica,sans-Serif" font-size="9.00">__tests__</text>
</a>
</g>
</g>
<!-- src/auth/__tests__&#45;&gt;src -->
<g id="edge9" class="edge">
<title>src/auth/__tests__&#45;&gt;src</title>
<path fill="none" stroke="#000000" stroke-width="2" stroke-opacity="0.200000" d="M76.62,-152.67C77.89,-151.57 79.03,-150.36 80,-149 108.6,-108.93 63.18,-78.17 93,-39 97.72,-32.8 106.53,-30.08 112.81,-28.89"/>
<polygon fill="#000000" fill-opacity="0.200000" stroke="#000000" stroke-width="2" stroke-opacity="0.200000" points="113.49,-30.92 119.16,-28.05 112.94,-26.76 113.49,-30.92"/>
</g>
<!-- src/auth/__tests__&#45;&gt;src/auth -->
<g id="edge10" class="edge">
<title>src/auth/__tests__&#45;&gt;src/auth</title>
<path fill="none" stroke="#000000" stroke-width="2" stroke-opacity="0.200000" d="M72.62,-152.92C75.13,-151.65 77.64,-150.33 80,-149 92.38,-142.03 106.12,-132.73 113.85,-127.35"/>
<polygon fill="#000000" fill-opacity="0.200000" stroke="#000000" stroke-width="2" stroke-opacity="0.200000" points="115.35,-128.87 119.04,-123.69 112.93,-125.43 115.35,-128.87"/>
</g>
<!-- src/auth/__tests__&#45;&gt;src/__tests__ -->
<g id="edge8" class="edge">
<title>src/auth/__tests__&#45;&gt;src/__tests__</title>
<path fill="none" stroke="#000000" stroke-width="2" stroke-opacity="0.200000" d="M55.73,-171.18C60.79,-186.84 72.97,-218.98 93,-239 93.34,-239.34 93.68,-239.67 94.04,-239.99"/>
<polygon fill="#000000" fill-opacity="0.200000" stroke="#000000" stroke-width="2" stroke-opacity="0.200000" points="93.01,-241.85 99.04,-243.84 95.57,-238.52 93.01,-241.85"/>
</g>
<!-- src/auth/__tests__&#45;&gt;src/auth/domain/services -->
<g id="edge11" class="edge">
<title>src/auth/__tests__&#45;&gt;src/auth/domain/services</title>
<path fill="none" stroke="#000000" stroke-width="2" stroke-opacity="0.200000" d="M80.01,-169.81C128.85,-182.88 235.04,-206.49 324,-193 333.49,-191.56 343.57,-188.87 352.61,-186"/>
<polygon fill="#000000" fill-opacity="0.200000" stroke="#000000" stroke-width="2" stroke-opacity="0.200000" points="353.35,-187.96 358.39,-184.09 352.04,-183.98 353.35,-187.96"/>
</g>
<!-- src/auth/domain -->
<!-- src/auth/infrastructure -->
<!-- src/tools -->
<g id="node14" class="node">
<title>src/tools</title>
<g id="a_node14"><a xlink:href="src/tools" xlink:title="tools">
<polygon fill="#ffffcc" stroke="black" points="79,-34 27,-34 25,-32 25,-16 77,-16 79,-18 79,-34"/>
<polyline fill="none" stroke="black" points="77,-32 25,-32"/>
<polyline fill="none" stroke="black" points="77,-32 77,-16"/>
<polyline fill="none" stroke="black" points="77,-32 79,-34"/>
<text text-anchor="start" x="42" y="-22.8" font-family="Helvetica,sans-Serif" font-size="9.00">tools</text>
</a>
</g>
</g>
<!-- src/tools&#45;&gt;src -->
<g id="edge19" class="edge">
<title>src/tools&#45;&gt;src</title>
<path fill="none" stroke="#000000" stroke-width="2" stroke-opacity="0.200000" d="M79.1,-26.17C91.31,-26.72 104.91,-27.32 112.95,-27.68"/>
<polygon fill="#000000" fill-opacity="0.200000" stroke="#000000" stroke-width="2" stroke-opacity="0.200000" points="112.93,-29.79 119.01,-27.96 113.11,-25.59 112.93,-29.79"/>
</g>
</g>
</svg>
